<svg id="DAA_Logo" xmlns="http://www.w3.org/2000/svg" xmlns:xlink="http://www.w3.org/1999/xlink" width="280" height="90.313" viewBox="0 0 280 90.313"><g><path d="M158.871,94.859c-12.288,1.754-24.744,4.737-24.744,4.737,8.995-3.336,23.115-6.444,23.115-6.444Zm20.272,1.706q.506-.791,1.018-1.662c.383-.652.875-1.492,1.451-2.648l.011-.023a1.434,1.434,0,0,0-1.19-2.073c-.536-.039-1.1-.078-1.671-.13-.887-.083-1.461-.141-2.213-.214a1.448,1.448,0,0,0-1.523.982,19.36,19.36,0,0,1-1.658,3.6,20.036,20.036,0,0,1-1.656,2.455,1.321,1.321,0,0,1-1.064.493,14.726,14.726,0,0,1-4.8-.943,14.124,14.124,0,0,1-7.47-6.3c-.7.221-1.465.411-2.228.606l-2.289.648c-.927.285-2.441.726-5.1,1.473-2.469.725-5,1.485-7.079,2.153-3.08.987-7.932,2.776-12.155,4.373a46,46,0,0,0,2.664,5.749,110.1,110.1,0,0,1,19.438-4.68A113.222,113.222,0,0,1,169.7,99.26a50,50,0,0,1,9.48.8c1.424.276,2.59.584,3.391.812a23.658,23.658,0,0,0,1.769-2.277,23.23,23.23,0,0,0,1.421-2.381,10.473,10.473,0,0,1-6.127,1.351.652.652,0,0,1-.492-1" transform="translate(-65.555 -45.453)" fill="#d50032"/><path d="M96.407,88.126c-1.48-3.94-2.929-7.892-4.4-11.833A1.041,1.041,0,0,0,90.13,76c-.8.966-1.615,1.92-2.385,2.91a1.409,1.409,0,0,0-.256.869c.045.833.153,1.665.251,2.5.117.989.251,1.975.378,2.971L91.391,84l.223.324c-1.728.923-3.311,1.524-4.919,4.3,0,.012.011.022.015.035a19,19,0,0,0-1.346,3.911c.263.013.534.023.812.036.768-2.7,1.943-4.489,3.076-4.37,1.081.115,1.839,1.933,2.072,4.532,1.6-1.183,3.147-2.342,4.721-3.454a.856.856,0,0,0,.362-1.194" transform="translate(-43.203 -38.229)" fill="#d50032"/><path d="M83.8,120.138a27.1,27.1,0,0,0-.01,3.469,8.394,8.394,0,0,0,.814-.231,21.076,21.076,0,0,1-.062-3.19l-.742-.048" transform="translate(-42.383 -60.804)" fill="#d50032"/><path d="M135.4,22.077c-7.146,3.28-17.453,5.856-23.69,7.242.426.119.884.258,1.372.427.214.073.495.171.828.3,1.993-.285,3.849-.559,4.529-.677a85.043,85.043,0,0,0,19.558-5.438,37.014,37.014,0,0,0,4.193-2.28c-1.453,0-3.763-.038-5.213.018a4.306,4.306,0,0,0-1.576.41m-60.671,2.5a44.507,44.507,0,0,1,13.332-2.168,7.538,7.538,0,0,0-5.486-3.257s-1.861-5.846-2.515-8.227c15.535-2.883,52.184-2.8,55.584-2.788.167,0,.378-.194,0-.244C130.7,7.253,106,5.128,72.93,8.042c1.281,2.629,5.054,10.366,5.676,11.638-2.333,1.466-3.612,3.08-3.881,4.9m-7.15,3.071a28.225,28.225,0,0,1,3.655-1.918c-6.975.375-21.111.9-32.241.256a29.277,29.277,0,0,0-4.717.422s.884.13,1.165.16c12.07,1.706,25.8,1.352,32.138,1.08m-52.111-.728s1.213.306,1.544.4c18.846,4.88,37.439,5.885,44.329,6.218a19.317,19.317,0,0,1,3.94-4.26,402.259,402.259,0,0,1-43.133-2.665,46.283,46.283,0,0,0-6.681.3M60.049,1.153A208.958,208.958,0,0,0,13.491,7.467C10.1,8.307-.181,11.574,0,17.061c.2,5.988,12.24,7.055,22.6,6.968,10.222-.085,44.072-1.514,50.086-1.558a10.217,10.217,0,0,1,1.521-2.433c-11.073.338-39.492,1.136-52.158.825-9.579-.237-14.039-2.153-14.11-4.3C7.633,7.087,58.9,1.73,59.418,1.684c3.637-.335,2.677-.627.63-.531M58.964,4.59c1.152-.249,1.439-.556-.223-.374s-3.5.368-5.251.589c-2.725.348-40.045,6.075-39.859,11.643-.05,0,4.77-.187,5.391-.21,3-5.367,38.789-11.4,39.941-11.648m98.689,3.751C155.5,7.665,130.842-1.042,71.647.1c-.91-.005-3.053.075-3.053.075s1.924,3.443,2.766,4.855a1.035,1.035,0,0,0,.819.342c3.28-.212,6.556-.573,9.839-.677,45.334-2.141,73.371,3.761,75.5,4.2,1.5.312,2.283.116.133-.561m9.256,6.889c-1.753.07-61.017,2.335-79.029,3.024a10.254,10.254,0,0,1,2.714,2.818c8.79-.29,58.167-1.915,59.482-1.915,1.419,0,1.428.431-.132,1.546a31.953,31.953,0,0,1-5.039,2.921c-7.074,3.327-14.651,4.971-22.269,6.457-.654.128-3.731.469-6.811.805a20.571,20.571,0,0,1,2.964,1.8c4.877-.472,10.5-1.029,12.566-1.332a165.874,165.874,0,0,0,21.227-4.54A60.215,60.215,0,0,0,165.3,21.965a7.882,7.882,0,0,0,3.646-3.453,2.263,2.263,0,0,0-2.036-3.281" transform="translate(0 0)" fill="#1d428a"/><path d="M83.792,94.323a28.062,28.062,0,0,0,.123,4.768c.536,4.418,2.246,4.993,2.855,5.148a8.8,8.8,0,0,0,2.374.052c.612-.018,1.225-.1,1.838-.15.03.082.062.164.092.247-.8.333-3.107,1.086-3.107,1.086s.3,3.554.446,5.055l3.305.24c.435-2.268.825-4.412,1.275-6.544a2.067,2.067,0,0,1,.647-1.092c2.811-3.1,2.919-5.34,2.919-5.34s8.265-4.027,10-4.738q-.393-.836-.724-1.62c-.318.11-.609.208-.887.319Q97.643,94.68,90.34,97.624a1.657,1.657,0,0,0-.667.63c-.134.2-.263.411-.392.622-.737,1.916-1.7,3.1-2.623,3.005-2.412,0-2.107-7.488-2.107-7.488Zm2.6-4.91,1.551.057.21-2c-.62-.049-1.255.707-1.761,1.94m1.017,5.142-2-.129c-.094,2.724.509,4.847,1.49,4.979Zm2.942-23.6a7.53,7.53,0,0,0-.221-.837c-.144-.339-.3-.936-.484-.947-.626-.048-1.5-.123-1.867.237-1.115,1.1-2.358,2.286-1.4,4.232.32-.382.627-.77.958-1.133.791-.866,1.324-2.176,3.012-1.551m61.986,21.65a70.5,70.5,0,0,1-9.1,4.814,58.185,58.185,0,0,1-10.432,3.817c-.184.044-.368.082-.552.124,1.879-.688,3.722-1.476,5.546-2.309a66.466,66.466,0,0,0,9.88-5.329c.668-.454,1.282-.9,1.844-1.316.583.03,1.167.066,1.751.113.377.03.727.06,1.06.088m-33.066,11.887-8.642,3.188a6.778,6.778,0,0,1,.336-1.032,6.258,6.258,0,0,1,1.369-2.088,11.577,11.577,0,0,1,2.6-1.719,12.3,12.3,0,0,0,4.339,1.651m36.318-10.7c1.249-.905,2.273-1.728,3.04-2.378-2.648-.976-4.011-1.115-7.9-1.431a100.213,100.213,0,0,0-16.979.4A102.41,102.41,0,0,0,120.135,92.5c-1.25.295-3.774.894-7.015,1.986-1.445.488-2.649.947-3.541,1.305a18.311,18.311,0,0,0,1.574,3.093c3.157-1.064,6.867-2.288,9.284-2.985,4.934-1.422,13.539-2.385,11.9-1.9a85.54,85.54,0,0,0-18.792,7.761.04.04,0,0,1,.006.007c-.079.043-.152.083-.223.124q-.852.513-1.669,1.053a7.5,7.5,0,0,0-1.636,1.613,11.146,11.146,0,0,0-.832,1.405,22.52,22.52,0,0,0-1.17,2.547q-1.128.361-2.316.705-1.117.326-2.2.613a1.334,1.334,0,0,0-.278,1.667,1.173,1.173,0,0,0,.778.446c2.585-.793,4.711-1.468,6.2-1.947,5.792-1.858,6.346-2.149,14.482-5.078a40.651,40.651,0,0,0,6.78-.6,49.747,49.747,0,0,0,5.66-1.412,69.039,69.039,0,0,0,7.379-2.943,79.4,79.4,0,0,0,7.423-3.785c1.5-.9,2.73-1.731,3.654-2.386l0,0m8.4,7.1a.917.917,0,0,0-1.783-.288c-.131.333-.246.647-.329.807a4.868,4.868,0,0,1-.958,1.171,4.65,4.65,0,0,1-1.489.893,4.526,4.526,0,0,1-1.128.256,22.919,22.919,0,0,0-.83-3.15,18.144,18.144,0,0,0-1.044-2.533,10.268,10.268,0,0,0-1.755-2.367c-.493.31-1.06.655-1.69,1.019a10.9,10.9,0,0,1,1.207,1.453,12.661,12.661,0,0,1,2.123,6.2L139.819,109.3a11.931,11.931,0,0,0-.981-2.452,10.253,10.253,0,0,0-2.036-2.738c-.669.2-1.292.356-1.86.483a8.362,8.362,0,0,1,1.715,1.965,10.931,10.931,0,0,1,1.5,3.247c-1.267.454-2.592.88-3.98,1.263-.233.064-.464.127-.7.187a1.442,1.442,0,0,0-.213.456,1.108,1.108,0,0,0,.027.829,1.008,1.008,0,0,0,.59.484c14.689-4.277,23.9-6.953,24.712-7.171.058-.017.308-.084.637-.192a11.011,11.011,0,0,0,1.555-.638,6.517,6.517,0,0,0,1.958-1.617,7.817,7.817,0,0,0,1.165-2.165.886.886,0,0,0,.075-.356" transform="translate(-42.383 -34.988)" fill="#1d428a"/><path d="M191,73.472a14.512,14.512,0,0,0-1.323-4.157,21.49,21.49,0,0,0-1.631-2.692l-1.078.227s-.919.176-2.708.437c.472.96.93,1.939,1.222,2.6.841,1.536,3.661,3.162,5.518,3.582m-4.554,2.755c-.778,1.547-1.579,3.017-2.387,4.41.717-.125,1.454-.27,2.225-.444.946-.222,1.848-.458,2.7-.7a1.389,1.389,0,0,0,.885-.748,16.267,16.267,0,0,0,.973-3.065c.061-.319.116-.631.162-.936l-2.332-.729a1.162,1.162,0,0,0-1.407.555c-.264.547-.537,1.095-.816,1.657m-22.36-1.6a9.293,9.293,0,0,0,.584.83,12.032,12.032,0,0,0,6.476,4.045,13.9,13.9,0,0,0,1.814.373,1.911,1.911,0,0,0,1.828-.773c.256-.367.533-.791.809-1.266a17.865,17.865,0,0,0,.946-1.89c.219-.5.471-1.094.727-1.789a1.284,1.284,0,0,0-1.145-1.736c-.123,0-.244-.006-.373-.013-1.208-.04-3.152-.059-7.9.238-.772.045-1.729.108-2.836.192a1.177,1.177,0,0,0-.926,1.787m-3.321-5.3c.056.191.1.33.115.39a3.139,3.139,0,0,0,3.28,2.247c1.047-.089,2.108-.176,3.193-.247a68.689,68.689,0,0,1,7.768-.153,4.855,4.855,0,0,0,2.8-.524,5.213,5.213,0,0,0,1.762-3.153c-4.406.513-10.759,1.095-18.915,1.44m-6.448.21c.011.375.022.74.034,1.082v.005c.009.2.014.4.019.587a.01.01,0,0,1,0,.008c.006.169.011.332.017.487,0,.038,0,.076,0,.113.006.139.011.274.017.4v.019c.006.128.01.244.015.349,0,.028,0,.055,0,.08.006.1.011.195.016.271v0c.061,1.02.441,1.29.76,1.332a.886.886,0,0,0,.46-.074l1.194-.319c.519-.14.981-.266,1.76-.488l.34-.095a1.652,1.652,0,0,0,1.342-1.724,2.7,2.7,0,0,0-.032-.33c-.013-.067-.023-.123-.035-.167-.014-.062-.026-.1-.026-.1a.123.123,0,0,1-.007-.016v0c-.034-.113-.226-.708-.509-1.583q-2.575.1-5.376.166m4.235-3.7h0c0-.007-.005-.015-.009-.024-.073-.226-.15-.459-.223-.689q-1.987-.038-4.131-.12c0,.063,0,.122,0,.186,0,.027,0,.054,0,.082.014.5.029,1.026.044,1.562q1.581.022,3.172.023c.5,0,.987,0,1.472,0-.107-.333-.218-.673-.33-1.019m-5.487.974L153,64.956c-1.869-.08-3.817-.189-5.832-.333l-.426.274a1.087,1.087,0,0,0-.191.16c-.015.015-.03.031-.044.044a1.745,1.745,0,0,0-.469,1.071l.011.389q3.47.177,7.011.25m-6.93,2.818.177,6.725a.537.537,0,0,0,.763.489l5.508-1.72a1.045,1.045,0,0,0,.719-.952l-.147-4.614q-3.355.069-7.02.071m-6.317,1.678h0l.2,7.31c.012.4.355.6.768.452l3.745-1.346a1.115,1.115,0,0,0,.15-.07,1.176,1.176,0,0,0,.524-.617l.04-.151c.034-.1.015-.052.012-.151l-.213-7.108q-2.2-.006-4.505-.037l-.059.044a1.733,1.733,0,0,0-.665,1.673M137.2,72.523a2.491,2.491,0,0,0-.754,1.737c0,.126,0,.262.018.4a9.529,9.529,0,0,0,.155.967s.637,3.318.8,3.915a1.09,1.09,0,0,0,.427.606c.1.064.112.027.253-.005.047-.011.1-.027.148-.045.256-.1.385-.147.444-.172l.044-.017c.367-.186.411-.571.4-1.089l-.241-6.965c-.011-.375-.276-.683-.633-.389a9.047,9.047,0,0,0-1.063,1.054m15.759-9.011-.047-1.438a1.133,1.133,0,0,0-.094-.436h0a.943.943,0,0,0-.069-.121l-.012-.013a.466.466,0,0,0-.08-.079.289.289,0,0,0-.027-.019.382.382,0,0,0-.077-.041.221.221,0,0,0-.052-.013.244.244,0,0,0-.07-.011.622.622,0,0,0-.077.009c-.018,0-.035,0-.056.01a.568.568,0,0,0-.134.065l-.007,0-2.66,1.708q1.7.2,3.465.378m4.513-.986h0a.3.3,0,0,1-.012-.035c-.1-.322-.209-.637-.31-.945l-.006-.013c-.1-.318-.206-.628-.3-.922-.282-.846-.973-1.078-1.491-.805-.181.1-.349.177-.482.238-.568.267-.74.719-.758,1.486,0,.11,0,.228,0,.349a.081.081,0,0,1,0,.017c0,.015,0,.036,0,.066s0,.1,0,.17c.007.3.02.828.038,1.5q1.862.178,3.785.327c-.156-.483-.314-.962-.467-1.429m14.506-3.972a50.223,50.223,0,0,0-13.23.256,1.1,1.1,0,0,0-.848,1.446c.16.477.765,2.332,1.237,3.786,2.962.213,6.025.376,9.192.473,2.352.073,5.369.11,7.22.111.327,0,.278.059-.01.081-2.2.181-8,.548-16.048.436.1.324.184.569.218.684a0,0,0,0,1,.005,0c.091.3.2.658.309,1.026,8.809-.04,15.269-.273,20-.589.056-.319.106-.646.153-.981.006,0,.052-.418.049-.417a5.09,5.09,0,0,0-.643-2.846c-1.452-2.4-5.018-3.2-7.607-3.467m15.274,7.025a11.325,11.325,0,0,0-1.129-1.228,19.18,19.18,0,0,0-1.931-1.658,20.6,20.6,0,0,0-3.311-1.982,21.585,21.585,0,0,0-2.457-.993,24.811,24.811,0,0,0-2.46-.707,12.255,12.255,0,0,1,7.131,6.061l.011,0c.147.262.318.578.493.915,1.422-.13,2.63-.268,3.653-.405" transform="translate(-69.054 -29.476)" fill="#1d428a"/><path d="M411.149,151.6a3.622,3.622,0,0,1,3.6,2.777h-7.18a3.631,3.631,0,0,1,3.576-2.777m.056,11.237a7.346,7.346,0,0,0,7.045-4.537h-3.764a3.873,3.873,0,0,1-3.2,1.523,3.732,3.732,0,0,1-3.736-2.91h10.809a5.476,5.476,0,0,0,.1-1.148,7.317,7.317,0,1,0-7.257,7.072m-15.721,0a6.8,6.8,0,0,0,6.992-5.551h-3.683a3.39,3.39,0,0,1-3.309,2.189,3.763,3.763,0,0,1,0-7.526,3.389,3.389,0,0,1,3.309,2.189h3.683a6.794,6.794,0,0,0-6.992-5.551,7.128,7.128,0,1,0,0,14.251m-22.552-.32H376.4v-7.474a2.97,2.97,0,0,1,3.2-3.094,2.823,2.823,0,0,1,2.963,3.042v7.526h3.469v-8.645a4.978,4.978,0,0,0-5.309-5.285,5.6,5.6,0,0,0-4.324,1.841v-1.521h-3.469Zm-10.277-3.042a3.763,3.763,0,1,1,3.762-3.764,3.671,3.671,0,0,1-3.762,3.764m-.667,3.362a5.852,5.852,0,0,0,4.428-1.92v1.6h3.474v-13.61h-3.474v1.6a5.848,5.848,0,0,0-4.428-1.92c-3.792,0-6.646,3.068-6.646,7.124s2.854,7.126,6.646,7.126m-12.439-.32h3.469V143.3h-3.469Zm-10.446.32a5.266,5.266,0,0,0,4.136-1.814v1.493h3.469v-13.61h-3.469v7.658a2.782,2.782,0,0,1-2.989,2.91,2.663,2.663,0,0,1-2.8-2.856v-7.712h-3.469v8.727a4.867,4.867,0,0,0,5.125,5.2m-14.268-3.362a3.763,3.763,0,1,1,3.736-3.764,3.671,3.671,0,0,1-3.736,3.764m-7.206,3.042H321.1v-1.6a5.86,5.86,0,0,0,4.431,1.92c3.792,0,6.62-3.069,6.62-7.126s-2.828-7.124-6.62-7.124a5.856,5.856,0,0,0-4.431,1.92V143.3h-3.469Zm-24.112,0h3.469v-7.767a2.7,2.7,0,0,1,2.882-2.8,2.557,2.557,0,0,1,2.67,2.748v7.82h3.469v-7.767a2.674,2.674,0,0,1,2.854-2.8,2.543,2.543,0,0,1,2.668,2.748v7.82H315v-8.861a4.74,4.74,0,0,0-4.99-5.069,5.441,5.441,0,0,0-4.668,2.348,4.757,4.757,0,0,0-4.328-2.348,5.148,5.148,0,0,0-4.027,1.735v-1.414h-3.469Zm-13.426-6.965,2.722-7.395,2.7,7.395Zm-6.511,6.965h3.976l1.282-3.576h7.928l1.307,3.576H292.1L285.026,144.1h-4.345Z" transform="translate(-138.462 -72.527)" fill="#1d428a"/><path d="M474.574,109.221h3.469v-6.485c0-2.3,1.547-3.764,4.319-3.764h.508V95.4h-.508a5.284,5.284,0,0,0-4.319,2.269V95.61h-3.469Zm-6.567,0h3.469V95.61h-3.469Zm1.735-15.533a2.163,2.163,0,1,0-2.192-2.162,2.143,2.143,0,0,0,2.192,2.162m-15.214,8.566,2.722-7.393,2.7,7.393Zm-6.511,6.966h3.978l1.277-3.576h7.93l1.307,3.576h4.029L459.463,90.8h-4.345Z" transform="translate(-226.746 -45.228)" fill="#1d428a"/><path d="M341.712,110.7h3.469v-7.474a2.969,2.969,0,0,1,3.2-3.1,2.824,2.824,0,0,1,2.963,3.042V110.7h3.471v-8.647a4.982,4.982,0,0,0-5.313-5.284,5.6,5.6,0,0,0-4.324,1.841V97.087h-3.469Zm-9.528-3.043a3.763,3.763,0,1,1,3.734-3.764,3.67,3.67,0,0,1-3.734,3.764m0,3.363a7.128,7.128,0,1,0-7.314-7.126,7.07,7.07,0,0,0,7.314,7.126m-16.494-.32h3.6l5.657-13.611h-3.9l-3.525,9.287-3.523-9.287h-3.948ZM302.85,99.781a3.624,3.624,0,0,1,3.606,2.777h-7.18a3.628,3.628,0,0,1,3.574-2.777m.056,11.237a7.34,7.34,0,0,0,7.045-4.538h-3.762a3.873,3.873,0,0,1-3.2,1.523,3.734,3.734,0,0,1-3.736-2.911h10.811a5.452,5.452,0,0,0,.1-1.146,7.316,7.316,0,1,0-7.259,7.072m-18.47-15.268a5.739,5.739,0,0,1,0,11.477H281V95.751ZM277.309,110.7h7.208a9.21,9.21,0,1,0,0-18.417h-7.208Z" transform="translate(-140.348 -46.705)" fill="#d50032"/><path d="M138.294,52.985a29.381,29.381,0,0,0-11.078-3.473c-5.727-.632-22.389.762-29.17,11.231A12.1,12.1,0,0,0,96.6,65.765c.694-1.459,2.243-3.471,5.687-5.455,9.064-5.22,14.123-5.732,14.123-5.732a98.864,98.864,0,0,0-12.092,6.815c-7.076,4.6-7.622,8.034-7.091,10.074.264,1.013.419,1.574.533,2.116-2.876,1.791-6.872,4.34-10.291,6.517a2.839,2.839,0,0,1-1.671.484c-5.193-.044-12.14-.447-12.8-.447-1.075,0-2.4,1.322-2.931,2.065s.536.742.536.742,9.641.618,12.972.835a4.8,4.8,0,0,0,2.148-.383c3.256-1.45,13.187-5.886,14.606-6.561,1.7-.809,2.13-1.635,1.692-3.454-.34-1.412-.131-.5-.5-2.293-.4-2,.432-3.559,2.808-5.638a68.008,68.008,0,0,1,12.965-9.2c4.059-2.292,5.668-3.3,11.716-3.586a57.036,57.036,0,0,1,9.284.324" transform="translate(-35.383 -24.994)" fill="#d50032"/></g></svg>